<svg width="442" height="361" viewBox="0 0 442 361" fill="none" xmlns="http://www.w3.org/2000/svg">
<path d="M54.5623 257.123C49.4648 261.465 41.7241 263.542 31.3403 263.542C10.3838 263.542 0 254.291 0 235.6V191.044H6.98548V235.411C6.98548 249.76 15.1037 256.934 31.3403 256.934C47.5768 256.934 55.6951 249.949 55.6951 235.789V191.044H62.6806V235.789C62.6806 245.606 60.0374 252.592 54.5623 257.123Z" fill="white"/>
<path d="M131.025 227.86C137.633 231.069 141.031 236.544 141.031 244.285V262.976H134.046V244.662C134.046 235.978 127.816 231.635 115.166 231.635H87.7907V262.976H80.8052V191.233H116.11C133.48 191.233 142.164 197.652 142.164 210.49C141.975 218.608 138.388 224.461 131.025 227.86ZM116.299 197.652H87.7907V224.839H114.6C120.453 224.839 125.361 223.706 128.948 221.629C133.102 219.175 135.179 215.399 135.179 210.49C134.99 201.994 128.76 197.652 116.299 197.652Z" fill="white"/>
<path d="M190.307 263.542C180.867 263.542 173.316 261.843 167.652 258.634C160.477 254.48 156.89 248.061 156.89 239.376V236.167H163.876V238.999C163.876 251.082 172.749 257.123 190.496 257.123C196.726 257.123 201.824 256.179 205.977 254.48C211.075 252.215 213.718 248.628 213.718 243.908C213.718 240.698 212.774 238.244 210.886 236.544C209.376 235.034 206.733 233.713 202.768 232.769C200.691 232.202 195.594 231.069 187.664 229.37C178.602 227.482 172.372 225.783 169.162 224.084C162.554 220.686 159.156 215.777 159.156 209.169C159.156 196.708 168.784 190.478 188.231 190.478C208.432 190.478 218.627 198.596 219.004 214.644H212.208C211.641 207.281 209.376 202.372 204.845 199.918C201.258 198.03 195.594 196.897 188.231 196.897C173.504 196.897 166.141 201.051 166.141 209.169C166.141 213.134 168.029 216.154 171.994 218.231C174.826 219.742 179.546 221.063 186.343 222.196C199.37 224.462 208.054 226.916 212.397 229.559C217.872 232.769 220.515 237.677 220.515 244.474C220.515 251.271 216.928 256.368 209.753 259.955C204.467 262.41 197.859 263.542 190.307 263.542Z" fill="white"/>
<path d="M292.069 257.123C286.971 261.465 279.231 263.542 268.847 263.542C247.89 263.542 237.507 254.291 237.507 235.6V191.044H244.492V235.411C244.492 249.76 252.61 256.934 268.847 256.934C285.083 256.934 293.202 249.949 293.202 235.789V191.044H300.187V235.789C300.376 245.606 297.544 252.592 292.069 257.123Z" fill="white"/>
<path d="M349.463 263.542C340.023 263.542 332.471 261.843 326.807 258.634C319.633 254.48 316.046 248.061 316.046 239.376V236.167H323.031V238.999C323.031 251.082 331.905 257.123 349.652 257.123C355.882 257.123 360.98 256.179 365.133 254.48C370.231 252.215 372.874 248.628 372.874 243.908C372.874 240.698 371.93 238.244 370.042 236.544C368.531 235.034 365.888 233.713 361.924 232.769C359.847 232.202 354.749 231.069 346.82 229.37C337.758 227.482 331.527 225.783 328.318 224.084C321.71 220.686 318.311 215.777 318.311 209.169C318.311 196.708 327.94 190.478 347.386 190.478C367.587 190.478 377.782 198.596 378.16 214.644H371.363C370.797 207.281 368.531 202.372 364 199.918C360.413 198.03 354.749 196.897 347.386 196.897C332.66 196.897 325.297 201.051 325.297 209.169C325.297 213.134 327.185 216.154 331.15 218.231C333.982 219.742 338.701 221.063 345.498 222.196C358.525 224.462 367.21 226.916 371.552 229.559C377.027 232.769 379.67 237.677 379.67 244.474C379.67 251.271 376.083 256.368 368.909 259.955C363.623 262.41 357.204 263.542 349.463 263.542Z" fill="white"/>
<path d="M57.5831 360.017V325.845H6.98548V360.017H0V288.274H6.98548V319.425H57.5831V288.274H64.5686V360.017H57.5831Z" fill="white"/>
<path d="M141.975 350.955C134.99 357.563 125.55 360.772 113.467 360.772C101.384 360.772 91.9441 357.563 85.1474 350.955C78.3507 344.536 74.7635 335.474 74.7635 324.146C74.7635 313.007 78.1619 304.133 85.1474 297.903C91.9441 291.861 101.384 288.652 113.278 288.652C125.172 288.652 134.612 291.673 141.598 297.903C148.583 304.322 152.17 313.007 152.17 324.146C152.359 335.474 148.961 344.347 141.975 350.955ZM137.067 302.623C131.403 297.525 123.662 295.071 113.467 295.071C103.461 295.071 95.72 297.525 90.0561 302.623C84.581 307.72 81.7491 314.895 81.7491 324.146C81.7491 333.397 84.581 340.76 90.2449 346.235C95.9088 351.71 103.649 354.353 113.467 354.353C123.473 354.353 131.403 351.71 137.067 346.424C142.73 341.137 145.562 333.774 145.562 324.334C145.374 314.895 142.542 307.72 137.067 302.623Z" fill="white"/>
<path d="M234.675 360.017V302.245L204.845 360.017H199.37L169.351 302.245V360.017H162.365V288.274H169.728L201.824 350.388L234.108 288.274H241.471V360.017H234.675V360.017Z" fill="white"/>
<path d="M254.31 360.017V288.274H310.382V294.693H261.106V319.425H304.718V325.845H261.106V353.598H310.949V360.017H254.31V360.017Z" fill="white"/>
<path d="M350.407 360.773C340.967 360.773 333.415 359.074 327.751 355.865C320.577 351.711 316.99 345.292 316.99 336.607V333.398H323.975V336.23C323.975 348.313 332.849 354.354 350.596 354.354C356.826 354.354 361.923 353.41 366.077 351.711C371.174 349.446 373.818 345.858 373.818 341.139C373.818 337.929 372.874 335.475 370.986 333.775C369.475 332.265 366.832 330.943 362.867 329.999C360.791 329.433 355.693 328.3 347.764 326.601C338.701 324.713 332.471 323.014 329.262 321.315C322.654 317.917 319.255 313.008 319.255 306.4C319.255 293.939 328.884 287.709 348.33 287.709C368.531 287.709 378.726 295.827 379.104 311.875H372.307C371.741 304.512 369.475 299.603 364.944 297.149C361.357 295.261 355.693 294.128 348.33 294.128C333.604 294.128 326.241 298.282 326.241 306.4C326.241 310.365 328.129 313.385 332.094 315.462C334.925 316.973 339.645 318.294 346.442 319.427C359.469 321.692 368.154 324.147 372.496 326.79C377.971 330 380.614 334.908 380.614 341.705C380.614 348.502 377.027 353.599 369.853 357.186C364.567 359.452 357.959 360.773 350.407 360.773Z" fill="white"/>
<path d="M2 122.194L442 0V9.80574L2 132V122.194Z" fill="white"/>
</svg>
