<?xml version="1.0" encoding="utf-8"?>
<!-- Generator: Adobe Illustrator 19.0.1, SVG Export Plug-In . SVG Version: 6.00 Build 0)  -->
<svg version="1.1" id="Layer_1" xmlns="http://www.w3.org/2000/svg" xmlns:xlink="http://www.w3.org/1999/xlink" x="0px" y="0px"
	 viewBox="0 0 498.6 482.5" style="enable-background:new 0 0 498.6 482.5;" xml:space="preserve">
<style type="text/css">
	.st0{clip-path:url(#SVGID_2_);fill:#0069FF;}
	.st1{clip-path:url(#SVGID_2_);fill:#00D77E;}
</style>
<g>
	<defs>
		<rect id="SVGID_1_" width="498.6" height="482.5"/>
	</defs>
	<clipPath id="SVGID_2_">
		<use xlink:href="#SVGID_1_"  style="overflow:visible;"/>
	</clipPath>
	<path class="st0" d="M40.2,434.3h209.1v-16.1H40.2c-13.3,0-24.1-10.8-24.1-24.1V40.2c0-13.3,10.8-24.1,24.1-24.1H394
		c13.3,0,24.1,10.8,24.1,24.1v185h16.1v-185C434.2,18,416.2,0,394,0H40.2C18,0,0,18,0,40.2V394C0,416.3,18,434.3,40.2,434.3"/>
	<rect x="32.2" y="32.2" class="st0" width="16.1" height="16.1"/>
	<rect x="64.3" y="32.2" class="st0" width="16.1" height="16.1"/>
	<rect x="96.5" y="32.2" class="st0" width="16.1" height="16.1"/>
	<rect x="32.2" y="64.4" class="st0" width="369.9" height="16.1"/>
	<rect x="32.2" y="257.4" class="st0" width="151.5" height="16.1"/>
	<rect x="32.2" y="345" class="st0" width="151.5" height="16.1"/>
	<rect x="92.2" y="299.9" class="st0" width="151.5" height="16.1"/>
	<path class="st1" d="M378,482.5c66.6,0,120.6-54,120.6-120.6c0-66.6-54-120.6-120.6-120.6c-66.6,0-120.6,54-120.6,120.6
		C257.4,428.5,311.4,482.5,378,482.5 M378,257.4c57.7,0,104.5,46.8,104.5,104.5c0,57.7-46.8,104.5-104.5,104.5
		s-104.5-46.8-104.5-104.5C273.5,304.2,320.2,257.4,378,257.4"/>
	<path class="st1" d="M328.9,366.4l-14.4,7.2l16.1,32.2c1.2,2.3,3.4,3.9,5.9,4.3c0.4,0.1,0.8,0.1,1.2,0.1c2.1,0,4.2-0.8,5.7-2.4
		l96.5-96.5l-11.4-11.4l-88.6,88.6L328.9,366.4z"/>
	<path class="st0" d="M157,235.1c0.1,0,0.1,0.1,0.2,0.1l0.4,0.2c1.8,0.8,3.6,1.5,5.4,2.2c0.3,0.1,0.6,0.2,0.9,0.3
		c1.7,0.6,3.5,1.1,5.3,1.5c0.4,0.1,0.8,0.2,1.2,0.3c1.7,0.4,3.4,0.7,5.2,0.9c0.5,0.1,0.9,0.2,1.4,0.2c4.4,0.5,8.9,0.5,13.3,0
		c0.5,0,0.9-0.2,1.4-0.2c1.8-0.2,3.5-0.5,5.2-0.9c0.4-0.1,0.8-0.2,1.2-0.3c1.8-0.4,3.6-0.9,5.3-1.5c0.3-0.1,0.6-0.2,0.9-0.3
		c1.8-0.7,3.6-1.4,5.4-2.2l0.4-0.2c0.1,0,0.1-0.1,0.2-0.1c26.1-12.5,40.1-41.3,33.7-69.5c-6.4-28.2-31.4-48.2-60.4-48.2
		c-28.9,0-54,20-60.4,48.2C117,193.8,131,222.7,157,235.1L157,235.1z M199.2,223.1l-0.1,0c-2.4,0.8-4.8,1.5-7.3,1.9
		c-0.2,0-0.5,0.1-0.7,0.1c-4.9,0.8-9.9,0.8-14.8,0c-0.2,0-0.5-0.1-0.7-0.1c-2.5-0.4-4.9-1.1-7.3-1.9l-0.1,0v-12.8
		c0-8.5,6.9-15.5,15.5-15.5c8.5,0,15.5,6.9,15.5,15.5V223.1z M176,171.7c0-4.3,3.5-7.7,7.7-7.7c4.3,0,7.7,3.5,7.7,7.7
		c0,4.3-3.5,7.7-7.7,7.7C179.5,179.4,176,175.9,176,171.7 M183.7,133c19.2,0,36.5,11.8,43.4,29.8c6.9,18,1.9,38.3-12.4,51.1v-3.6
		c0-9.8-4.7-18.9-12.5-24.7c3.1-4,4.8-8.9,4.8-14c0-12.8-10.4-23.2-23.2-23.2c-12.8,0-23.2,10.4-23.2,23.2c0,5,1.7,9.9,4.8,13.9
		c-7.9,5.8-12.5,15-12.5,24.8v3.6c-14.3-12.8-19.3-33.2-12.4-51.1C147.3,144.8,164.5,133,183.7,133"/>
	<rect x="36.8" y="117.5" class="st0" width="46.4" height="15.5"/>
	<rect x="98.6" y="117.5" class="st0" width="15.5" height="15.5"/>
	<rect x="52.2" y="300.2" class="st0" width="15.5" height="15.5"/>
	<rect x="206.7" y="257.7" class="st0" width="15.5" height="15.5"/>
	<rect x="206.7" y="345.3" class="st0" width="15.5" height="15.5"/>
</g>
</svg>
