<?xml version="1.0" encoding="utf-8"?>
<!-- Generator: Adobe Illustrator 19.0.1, SVG Export Plug-In . SVG Version: 6.00 Build 0)  -->
<svg version="1.1" id="Layer_1" xmlns="http://www.w3.org/2000/svg" xmlns:xlink="http://www.w3.org/1999/xlink" x="0px" y="0px"
	 viewBox="0 0 512 482.2" style="enable-background:new 0 0 512 482.2;" xml:space="preserve">
<style type="text/css">
	.st0{clip-path:url(#SVGID_2_);fill:#0F72FF;}
	.st1{clip-path:url(#SVGID_2_);fill:#00D77E;}
</style>
<g>
	<defs>
		<rect id="SVGID_1_" width="512" height="482.2"/>
	</defs>
	<clipPath id="SVGID_2_">
		<use xlink:href="#SVGID_1_"  style="overflow:visible;"/>
	</clipPath>
	<path class="st0" d="M68.9,246.8H7.6c-4.2,0-7.6,3.4-7.6,7.6v220.2c0,4.2,3.4,7.6,7.6,7.6h61.3c4.2,0,7.6-3.4,7.6-7.6v-69.5
		c0-4.2-3.4-7.6-7.6-7.6c-4.2,0-7.6,3.4-7.6,7.6V467H15.2V262h46.1v117.8c0,4.2,3.4,7.6,7.6,7.6c4.2,0,7.6-3.4,7.6-7.6V254.4
		C76.5,250.2,73.1,246.8,68.9,246.8"/>
	<path class="st0" d="M177.8,317.6h-61.3c-4.2,0-7.6,3.4-7.6,7.6v149.4c0,4.2,3.4,7.6,7.6,7.6h61.3c4.2,0,7.6-3.4,7.6-7.6V325.2
		C185.4,321,182,317.6,177.8,317.6 M170.2,467h-46.1V332.8h46.1V467z"/>
	<path class="st0" d="M286.7,199.6h-61.3c-4.2,0-7.6,3.4-7.6,7.6v267.4c0,4.2,3.4,7.6,7.6,7.6h61.3c4.2,0,7.6-3.4,7.6-7.6V207.2
		C294.3,203,290.9,199.6,286.7,199.6 M279.1,467h-46.1V214.8h46.1V467z"/>
	<path class="st0" d="M395.5,235h-61.3c-4.2,0-7.6,3.4-7.6,7.6v232c0,4.2,3.4,7.6,7.6,7.6h61.3c4.2,0,7.6-3.4,7.6-7.6v-232
		C403.1,238.4,399.7,235,395.5,235 M387.9,467h-46.1V250.2h46.1V467z"/>
	<path class="st0" d="M504.4,128.9h-61.3c-4.2,0-7.6,3.4-7.6,7.6v100.4c0,4.2,3.4,7.6,7.6,7.6c4.2,0,7.6-3.4,7.6-7.6v-92.8h46.1V467
		h-46.1V262.2c0-4.2-3.4-7.6-7.6-7.6c-4.2,0-7.6,3.4-7.6,7.6v212.4c0,4.2,3.4,7.6,7.6,7.6h61.3c4.2,0,7.6-3.4,7.6-7.6V136.5
		C512,132.3,508.6,128.9,504.4,128.9"/>
	<path class="st1" d="M452.2,69.9c6.1,4.2,13.6,6.7,21.5,6.7c21.1,0,38.3-17.2,38.3-38.3C512,17.2,494.8,0,473.7,0
		c-21.1,0-38.3,17.2-38.3,38.3c0,7.6,2.3,14.7,6.1,20.7l-55.2,53.8c-6.1-4.2-13.6-6.7-21.5-6.7c-14.3,0-26.7,7.8-33.3,19.4
		L294,113.4c0.2-1.4,0.3-2.9,0.3-4.4c0-21.1-17.2-38.3-38.3-38.3c-21.1,0-38.3,17.2-38.3,38.3c0,8.4,2.7,16.1,7.3,22.4l-58,62.8
		c-5.8-3.5-12.6-5.6-19.8-5.6c-10.7,0-20.3,4.4-27.3,11.5l-46-29.9c1.7-4.4,2.7-9.1,2.7-14.1c0-21.1-17.2-38.3-38.3-38.3
		C17.2,117.9,0,135.1,0,156.2c0,21.1,17.2,38.3,38.3,38.3c10.7,0,20.3-4.4,27.3-11.5l46,29.9c-1.7,4.4-2.7,9.1-2.7,14.1
		c0,21.1,17.2,38.3,38.3,38.3c21.1,0,38.3-17.2,38.3-38.3c0-8.4-2.7-16.1-7.3-22.4l58-62.8c5.8,3.5,12.6,5.6,19.8,5.6
		c14.3,0,26.7-7.8,33.3-19.4l37.6,12.2c-0.2,1.4-0.3,2.9-0.3,4.4c0,21.1,17.2,38.3,38.3,38.3c21.1,0,38.3-17.2,38.3-38.3
		c0-7.6-2.3-14.7-6.1-20.7L452.2,69.9z M38.3,179.3c-12.7,0-23.1-10.3-23.1-23.1s10.3-23.1,23.1-23.1c12.7,0,23.1,10.3,23.1,23.1
		S51,179.3,38.3,179.3 M147.1,250c-12.7,0-23.1-10.3-23.1-23.1s10.3-23.1,23.1-23.1c12.7,0,23.1,10.3,23.1,23.1S159.8,250,147.1,250
		 M256,132.1c-12.7,0-23.1-10.3-23.1-23.1c0-12.7,10.3-23.1,23.1-23.1s23.1,10.3,23.1,23.1C279.1,121.7,268.7,132.1,256,132.1
		 M473.7,15.2c12.7,0,23.1,10.3,23.1,23.1c0,12.7-10.3,23.1-23.1,23.1c-12.7,0-23.1-10.3-23.1-23.1C450.7,25.6,461,15.2,473.7,15.2
		 M364.9,167.5c-12.7,0-23.1-10.3-23.1-23.1s10.3-23.1,23.1-23.1c12.7,0,23.1,10.3,23.1,23.1S377.6,167.5,364.9,167.5"/>
</g>
</svg>
