<?xml version="1.0" encoding="utf-8"?>
<!-- Generator: Adobe Illustrator 19.0.1, SVG Export Plug-In . SVG Version: 6.00 Build 0)  -->
<svg version="1.1" id="Layer_1" xmlns="http://www.w3.org/2000/svg" xmlns:xlink="http://www.w3.org/1999/xlink" x="0px" y="0px"
	 viewBox="0 0 498.6 482.5" style="enable-background:new 0 0 498.6 482.5;" xml:space="preserve">
<style type="text/css">
	.st0{clip-path:url(#SVGID_2_);fill:#0069FF;}
	.st1{clip-path:url(#SVGID_2_);fill:#00D77E;}
</style>
<g>
	<defs>
		<rect id="SVGID_1_" width="498.6" height="482.5"/>
	</defs>
	<clipPath id="SVGID_2_">
		<use xlink:href="#SVGID_1_"  style="overflow:visible;"/>
	</clipPath>
	<path class="st0" d="M40.2,434.3h209.1v-16.1H40.2c-13.3,0-24.1-10.8-24.1-24.1V40.2c0-13.3,10.8-24.1,24.1-24.1H394
		c13.3,0,24.1,10.8,24.1,24.1v185h16.1v-185C434.2,18,416.2,0,394,0H40.2C18,0,0,18,0,40.2V394C0,416.2,18,434.2,40.2,434.3"/>
	<rect x="32.2" y="32.2" class="st0" width="16.1" height="16.1"/>
	<rect x="64.3" y="32.2" class="st0" width="16.1" height="16.1"/>
	<rect x="96.5" y="32.2" class="st0" width="16.1" height="16.1"/>
	<rect x="32.2" y="64.3" class="st0" width="369.9" height="16.1"/>
	<path class="st0" d="M114.9,98.9l-20.4,20.4c-17.3-11.4-40.4-7.9-53.5,8.1c-13.1,16-11.9,39.4,2.7,54c14.6,14.6,38,15.8,54,2.7
		c16-13.1,19.5-36.2,8.1-53.5l20.4-20.4L114.9,98.9z M72.4,176.9c-13.3,0-24.1-10.8-24.1-24.1c0-13.3,10.8-24.1,24.1-24.1
		c3.6,0,7.1,0.8,10.3,2.4l-16,16l11.4,11.4l16-16c1.6,3.2,2.4,6.7,2.4,10.3C96.5,166.1,85.7,176.9,72.4,176.9"/>
	<rect x="136.7" y="128.7" class="st0" width="136.7" height="16.1"/>
	<rect x="136.7" y="160.8" class="st0" width="56.3" height="16.1"/>
	<rect x="209.1" y="160.8" class="st0" width="112.6" height="16.1"/>
	<rect x="289.5" y="128.7" class="st0" width="80.4" height="16.1"/>
	<path class="st0" d="M114.9,195.4l-20.4,20.4c-17.3-11.4-40.4-7.9-53.5,8.1c-13.1,16-11.9,39.4,2.7,54c14.6,14.6,38,15.8,54,2.7
		c16-13.1,19.5-36.2,8.1-53.5l20.4-20.4L114.9,195.4z M72.4,273.4c-13.3,0-24.1-10.8-24.1-24.1c0-13.3,10.8-24.1,24.1-24.1
		c3.6,0,7.1,0.8,10.3,2.4l-16,16L78.1,255l16-16c1.6,3.2,2.4,6.7,2.4,10.3C96.5,262.6,85.7,273.4,72.4,273.4"/>
	<rect x="136.7" y="225.2" class="st0" width="136.7" height="16.1"/>
	<rect x="136.7" y="257.3" class="st0" width="56.3" height="16.1"/>
	<rect x="209.1" y="257.3" class="st0" width="64.3" height="16.1"/>
	<rect x="289.5" y="225.2" class="st0" width="32.2" height="16.1"/>
	<path class="st0" d="M114.9,291.9l-20.4,20.4c-17.3-11.4-40.4-7.9-53.5,8.1c-13.1,16-11.9,39.4,2.7,54c14.6,14.6,38,15.8,54,2.7
		c16-13.1,19.5-36.2,8.1-53.5l20.4-20.4L114.9,291.9z M72.4,369.9c-13.3,0-24.1-10.8-24.1-24.1c0-13.3,10.8-24.1,24.1-24.1
		c3.6,0,7.1,0.8,10.3,2.4l-16,16l11.4,11.4l16-16c1.6,3.2,2.4,6.8,2.4,10.3C96.5,359.1,85.7,369.9,72.4,369.9"/>
	<rect x="136.7" y="321.7" class="st0" width="104.5" height="16.1"/>
	<rect x="136.7" y="353.8" class="st0" width="56.3" height="16.1"/>
	<rect x="209.1" y="353.8" class="st0" width="32.2" height="16.1"/>
	<path class="st1" d="M378,482.5c66.6,0,120.6-54,120.6-120.6c0-66.6-54-120.6-120.6-120.6s-120.6,54-120.6,120.6
		C257.4,428.5,311.4,482.4,378,482.5 M378,257.3c57.7,0,104.5,46.8,104.5,104.5c0,57.7-46.8,104.5-104.5,104.5
		c-57.7,0-104.5-46.8-104.5-104.5C273.5,304.2,320.2,257.4,378,257.3"/>
	<path class="st1" d="M328.9,366.3l-14.4,7.2l16.1,32.2c1.2,2.3,3.4,3.9,5.9,4.3c0.4,0.1,0.8,0.1,1.2,0.1c2.1,0,4.2-0.8,5.7-2.4
		l96.5-96.5l-11.4-11.4L340,388.5L328.9,366.3z"/>
</g>
</svg>
