<?xml version="1.0" encoding="utf-8"?>
<!-- Generator: Adobe Illustrator 22.0.1, SVG Export Plug-In . SVG Version: 6.00 Build 0)  -->
<svg version="1.1" id="Capa_1" xmlns="http://www.w3.org/2000/svg" xmlns:xlink="http://www.w3.org/1999/xlink" x="0px" y="0px"
	 viewBox="0 0 712 512" style="enable-background:new 0 0 712 512;" xml:space="preserve">
<style type="text/css">
	.st0{fill:#00D77E;}
	.st1{fill:#0069FF;}
</style>
<g>
	<g>
		<path class="st0" d="M233.6,259h-30.2c-4.9,0-8.8,4-8.8,8.8c0,4.9,4,8.8,8.8,8.8h30.2c4.9,0,8.8-4,8.8-8.8
			C242.4,262.9,238.5,259,233.6,259z"/>
	</g>
</g>
<path class="st0" d="M405.8,273l41,41c3.5,3.5,9.2,3.5,12.7,0c3.5-3.5,3.5-9.2,0-12.7l-25.6-25.6H541c5,0,9-4,9-9c0-5-4-9-9-9H433.8
	l25.6-25.6c3.5-3.5,3.5-9.2,0-12.7c-3.5-3.5-9.2-3.5-12.7,0l-41,41C402.2,263.8,402.2,269.5,405.8,273z"/>
<g>
	<path class="st1" d="M405,291.7v177h-12.6c-4.9,0-8.8,4-8.8,8.8c0,4.9,4,8.8,8.8,8.8h21.4c4.9,0,8.8-4,8.8-8.8V309.4L405,291.7z"/>
	<path class="st1" d="M371,68.5h-87.4V43.3H405V241l17.7-17.7V34.5c0-4.9-4-8.8-8.8-8.8H283.5V8.8c0-2.7-1.3-5.3-3.5-7
		c-2.2-1.7-5-2.2-7.7-1.5L95.9,47.4c-3.9,1-6.6,4.5-6.6,8.5v28.5c0,4.9,4,8.8,8.8,8.8c4.9,0,8.8-4,8.8-8.8V62.7l158.9-42.4v472.1
		L107,460.6V114.2c0-4.9-4-8.8-8.8-8.8c-4.9,0-8.8,4-8.8,8.8v353.6c0,4.2,3,7.8,7.1,8.7L273,511.8c0.6,0.1,1.2,0.2,1.7,0.2
		c2,0,4-0.7,5.6-2c2-1.7,3.2-4.2,3.2-6.8v-16.8h81.4c4.9,0,8.8-4,8.8-8.8s-4-8.8-8.8-8.8h-81.4v-25.2H371c4.9,0,8.8-4,8.8-8.8V77.3
		C379.8,72.5,375.8,68.5,371,68.5z M362.1,425.8h-78.6V86.2h78.6V425.8z"/>
</g>
</svg>
