<?xml version="1.0" encoding="utf-8"?>
<!-- Generator: Adobe Illustrator 19.0.1, SVG Export Plug-In . SVG Version: 6.00 Build 0)  -->
<svg version="1.1" id="Layer_1" xmlns="http://www.w3.org/2000/svg" xmlns:xlink="http://www.w3.org/1999/xlink" x="0px" y="0px"
	 viewBox="0 0 937.5 937.5" style="enable-background:new 0 0 937.5 937.5;" xml:space="preserve">
<style type="text/css">
	.st0{clip-path:url(#SVGID_2_);fill:#0F72FF;}
	.st1{clip-path:url(#SVGID_2_);fill:#00D77E;}
</style>
<g>
	<defs>
		<rect id="SVGID_1_" width="937.5" height="937.5"/>
	</defs>
	<clipPath id="SVGID_2_">
		<use xlink:href="#SVGID_1_"  style="overflow:visible;"/>
	</clipPath>
	<path class="st0" d="M859.4,0H203.1C160,0.1,125.1,35,125,78.1v250h31.3v-250c0-25.9,21-46.9,46.9-46.9h656.3
		c25.9,0,46.9,21,46.9,46.9v484.4c0,25.9-21,46.9-46.9,46.9H656.3v31.3h203.1c43.1-0.1,78.1-35,78.1-78.1V78.1
		C937.4,35,902.5,0.1,859.4,0"/>
	<rect x="187.5" y="62.5" class="st0" width="31.3" height="31.3"/>
	<rect x="250" y="62.5" class="st0" width="31.3" height="31.3"/>
	<rect x="312.5" y="62.5" class="st0" width="31.3" height="31.3"/>
	<rect x="187.5" y="125" class="st0" width="687.5" height="31.3"/>
	<rect x="187.5" y="187.5" class="st0" width="156.3" height="31.3"/>
	<rect x="187.5" y="250" class="st0" width="93.8" height="31.3"/>
	<path class="st0" d="M453.1,296.9v-31.3c0-8.6-7-15.6-15.6-15.6H375c-8.6,0-15.6,7-15.6,15.6v15.6h62.5v15.6H453.1z"/>
	<path class="st0" d="M578.1,375V218.7c0-8.6-7-15.6-15.6-15.6H500c-8.6,0-15.6,7-15.6,15.6v109.4h31.3v-93.8h31.3V375H578.1z"/>
	<path class="st0" d="M671.9,531.3h-15.6v31.3H875v-31.3h-46.9V218.8c0-8.6-7-15.6-15.6-15.6H750c-8.6,0-15.6,7-15.6,15.6v312.5
		h-31.3V328.1c0-8.6-7-15.6-15.6-15.6H625c-8.6,0-15.6,7-15.6,15.6v140.6h31.3v-125h31.3V531.3z M765.6,234.4h31.3v296.9h-31.3
		V234.4z"/>
	<path class="st1" d="M312.5,312.5C139.9,312.5,0,452.4,0,625s139.9,312.5,312.5,312.5S625,797.6,625,625
		C624.8,452.5,485,312.7,312.5,312.5 M312.5,906.3C160.1,906.4,35.4,785.1,31.1,632.8c-4.2-152.3,113.6-280.3,265.7-288.6V625
		c0,0.3,0.2,0.6,0.2,1c0.1,1.4,0.4,2.7,0.8,4c0.1,0.3,0,0.7,0.2,1c0.1,0.2,0.2,0.4,0.3,0.5c0.7,1.6,1.7,3.1,2.9,4.4l0.1,0.1
		L500,834.6C448.5,880.9,381.7,906.4,312.5,906.3 M522.1,812.5L350.2,640.6h243.1C590,704.4,564.8,765,522.1,812.5 M328.1,609.4
		V344.2c143,8.1,257.1,122.2,265.2,265.2H328.1z"/>
</g>
</svg>
