<?xml version="1.0" encoding="utf-8"?>
<!-- Generator: Adobe Illustrator 22.0.1, SVG Export Plug-In . SVG Version: 6.00 Build 0)  -->
<svg version="1.1" id="Capa_1" xmlns="http://www.w3.org/2000/svg" xmlns:xlink="http://www.w3.org/1999/xlink" x="0px" y="0px"
	 viewBox="0 0 512 512" style="enable-background:new 0 0 512 512;" xml:space="preserve">
<style type="text/css">
	.st0{fill:#0069FF;}
	.st1{fill:#00D67D;}
</style>
<g>
	<g>
		<path class="st0" d="M343,63H212.2c-5.5,0-10,4.5-10,10s4.5,10,10,10H343c5.5,0,10-4.5,10-10C353,67.5,348.5,63,343,63z"/>
	</g>
</g>
<g>
	<g>
		<path class="st0" d="M110.8,65.9c-1.9-1.9-4.4-2.9-7.1-2.9s-5.2,1.1-7.1,2.9s-2.9,4.4-2.9,7.1s1.1,5.2,2.9,7.1s4.4,2.9,7.1,2.9
			s5.2-1.1,7.1-2.9s2.9-4.4,2.9-7.1C113.8,70.4,112.7,67.8,110.8,65.9z"/>
	</g>
</g>
<g>
	<g>
		<path class="st0" d="M74.1,65.9C72.2,64.1,69.7,63,67,63c-2.6,0-5.2,1.1-7.1,2.9S57,70.4,57,73s1.1,5.2,2.9,7.1S64.4,83,67,83
			c2.6,0,5.2-1.1,7.1-2.9C76,78.2,77,75.6,77,73C77,70.4,76,67.8,74.1,65.9z"/>
	</g>
</g>
<g>
	<g>
		<path class="st0" d="M147.6,65.9c-1.9-1.9-4.4-2.9-7.1-2.9s-5.2,1.1-7.1,2.9s-2.9,4.4-2.9,7.1s1.1,5.2,2.9,7.1
			c1.9,1.9,4.4,2.9,7.1,2.9s5.2-1.1,7.1-2.9s2.9-4.4,2.9-7.1C150.5,70.4,149.4,67.8,147.6,65.9z"/>
	</g>
</g>
<g>
	<g>
		<path class="st1" d="M384.6,193.9c-1.9-1.9-4.4-2.9-7.1-2.9s-5.2,1.1-7.1,2.9c-1.9,1.9-2.9,4.4-2.9,7.1s1.1,5.2,2.9,7.1
			s4.4,2.9,7.1,2.9s5.2-1.1,7.1-2.9c1.9-1.9,2.9-4.4,2.9-7.1S386.4,195.8,384.6,193.9z"/>
	</g>
</g>
<g>
	<g>
		<path class="st1" d="M335.1,191H194.7c-5.5,0-10,4.5-10,10s4.5,10,10,10h140.4c5.5,0,10-4.5,10-10
			C345.1,195.5,340.6,191,335.1,191z"/>
	</g>
</g>
<g>
	<g>
		<path class="st1" d="M335.1,247H194.7c-5.5,0-10,4.5-10,10c0,5.5,4.5,10,10,10h140.4c5.5,0,10-4.5,10-10
			C345.1,251.5,340.6,247,335.1,247z"/>
	</g>
</g>
<g>
	<g>
		<path class="st1" d="M140,257H74v-66c0-5.5-4.5-10-10-10s-10,4.5-10,10v76c0,5.5,4.5,10,10,10h76c5.5,0,10-4.5,10-10
			C150,261.5,145.5,257,140,257z"/>
	</g>
</g>
<g>
	<g>
		<path class="st1" d="M289.8,344.2h-55.3c-5.5,0-10,4.5-10,10s4.5,10,10,10h55.3c5.5,0,10-4.5,10-10
			C299.8,348.6,295.3,344.2,289.8,344.2z"/>
	</g>
</g>
<g>
	<g>
		<path class="st1" d="M201.8,347.1c-1.9-1.9-4.4-2.9-7.1-2.9c-2.6,0-5.2,1.1-7.1,2.9s-2.9,4.4-2.9,7.1s1.1,5.2,2.9,7.1
			s4.4,2.9,7.1,2.9s5.2-1.1,7.1-2.9s2.9-4.4,2.9-7.1S203.6,349,201.8,347.1z"/>
	</g>
</g>
<g>
	<g>
		<path class="st1" d="M289.8,400.2h-95.1c-5.5,0-10,4.5-10,10s4.5,10,10,10h95.1c5.5,0,10-4.5,10-10S295.3,400.2,289.8,400.2z"/>
	</g>
</g>
<g>
	<g>
		<path class="st1" d="M140,334.2H64c-5.5,0-10,4.5-10,10v76c0,5.5,4.5,10,10,10h76c5.5,0,10-4.5,10-10v-76
			C150,338.6,145.5,334.2,140,334.2z M130,410.2H74v-56h56L130,410.2L130,410.2z"/>
	</g>
</g>
<g>
	<g>
		<path class="st1" d="M496.1,202l-31.6-18.3c-15.2-8.8-34.6-3.5-43.4,11.6l-94.7,164c-1,1.7-1.4,3.6-1.3,5.6l4.1,72.8
			c0.2,3.4,2.1,6.4,5,8.1c1.5,0.9,3.3,1.3,5,1.3c1.5,0,3.1-0.4,4.5-1.1l65.1-32.8c1.7-0.9,3.2-2.2,4.2-3.9l94.7-164
			C516.5,230.2,511.3,210.8,496.1,202z M348.4,421.4l-2.2-39.1l37.2,21.5L348.4,421.4z M400.7,390.7l-52-30l67.5-116.9l52,30
			L400.7,390.7z M490.4,235.4l-12.2,21.1l-52-30l12.2-21.1c3.2-5.6,10.4-7.5,16.1-4.3l31.6,18.3
			C491.7,222.6,493.7,229.8,490.4,235.4z"/>
	</g>
</g>
<g>
	<g>
		<path class="st1" d="M153.6,187.7c-3.9-3.9-10.2-3.9-14.1,0l-26.2,26.2l-9.5-9.5c-3.9-3.9-10.2-3.9-14.1,0s-3.9,10.2,0,14.1
			l16.6,16.6c2,2,4.5,2.9,7.1,2.9s5.1-1,7.1-2.9l33.2-33.2C157.5,197.9,157.5,191.6,153.6,187.7z"/>
	</g>
</g>
<g>
	<g>
		<path class="st0" d="M462,159c5.5,0,10-4.5,10-10v-38.5c0-2.7-1.1-5.2-2.9-7.1l-73.5-73.5c-1.9-1.9-4.4-2.9-7.1-2.9H10
			C4.5,27,0,31.5,0,37v438c0,5.5,4.5,10,10,10h452c5.5,0,10-4.5,10-10v-70.6c0-5.5-4.5-10-10-10s-10,4.5-10,10V465H20V262.2
			c0-0.1,0-0.1,0-0.2s0-0.1,0-0.2V119h323c5.5,0,10-4.5,10-10s-4.5-10-10-10H20V47h358.5v63.5c0,5.5,4.5,10,10,10H452V149
			C452,154.5,456.5,159,462,159z M398.5,100.5V61.1l39.4,39.4C437.9,100.5,398.5,100.5,398.5,100.5z"/>
	</g>
</g>
</svg>
