<?xml version="1.0" encoding="utf-8"?>
<!-- Generator: Adobe Illustrator 19.0.1, SVG Export Plug-In . SVG Version: 6.00 Build 0)  -->
<svg version="1.1" id="Layer_1" xmlns="http://www.w3.org/2000/svg" xmlns:xlink="http://www.w3.org/1999/xlink" x="0px" y="0px"
	 viewBox="0 0 935 934.9" style="enable-background:new 0 0 935 934.9;" xml:space="preserve">
<style type="text/css">
	.st0{clip-path:url(#SVGID_2_);fill:#0069FF;}
	.st1{clip-path:url(#SVGID_2_);fill:#00D77E;}
</style>
<g>
	<defs>
		<rect id="SVGID_1_" width="935" height="934.9"/>
	</defs>
	<clipPath id="SVGID_2_">
		<use xlink:href="#SVGID_1_"  style="overflow:visible;"/>
	</clipPath>
	<path class="st0" d="M77.9,934.9h670c43-0.1,77.9-34.9,77.9-77.9V545.4h-31.2V857c0,25.8-20.9,46.7-46.7,46.7h-670
		c-25.8,0-46.7-20.9-46.7-46.7V171.4c0-25.8,20.9-46.7,46.7-46.7h467.5V93.5H77.9C34.9,93.5,0,128.4,0,171.4V857
		C0,900,34.9,934.9,77.9,934.9"/>
	<rect x="62.3" y="155.8" class="st0" width="31.2" height="31.2"/>
	<rect x="124.7" y="155.8" class="st0" width="31.2" height="31.2"/>
	<rect x="187" y="155.8" class="st0" width="31.2" height="31.2"/>
	<rect x="62.3" y="218.1" class="st0" width="436.3" height="31.2"/>
	<path class="st1" d="M891.1,136.8l-11.1-69c-1.1-6.6-6.3-11.8-12.9-12.9l-69-11.1L741.5,2.9C736-1,728.7-1,723.2,2.9l-56.7,40.9
		L597.6,55c-6.6,1.1-11.8,6.3-12.9,12.9l-11.1,69l-40.9,56.7c-3.9,5.4-3.9,12.8,0,18.2l40.9,56.7l11.1,68.9c1,5.5,4.8,10.1,10.1,12
		L547,444.9c-2.4,4.8-2.2,10.6,0.7,15.2c2.8,4.6,7.9,7.4,13.3,7.4h54l26.5,39.8c2.9,4.3,7.8,6.9,13,6.9h1c5.6-0.3,10.5-3.6,13-8.6
		l52.5-105.2l2.3,1.7c5.5,3.9,12.8,3.9,18.2,0l2.3-1.7l52.5,105.1c2.5,5,7.4,8.2,13,8.6l1,0.1c5.2,0,10.1-2.6,13-6.9l26.5-39.8h54
		c5.4,0,10.5-2.8,13.3-7.4c2.9-4.6,3.1-10.4,0.7-15.2l-47.8-95.7c5.3-1.9,9.1-6.4,10.1-12l11.1-68.9l40.9-56.7
		c3.9-5.4,3.9-12.8,0-18.2L891.1,136.8z M652.5,467.7l-16.3-24.4c-2.9-4.3-7.8-6.9-13-6.9h-37.1l40.7-81.4l39.7,6.4l20.7,14.9l8,5.8
		L652.5,467.7z M878.5,436.3h-37.1c-5.2,0-10.1,2.6-13,6.9l-16.3,24.4l-42.8-85.6l8-5.8l20.7-14.9l39.7-6.4L878.5,436.3z
		 M863.7,253.1c-1.4,2-2.4,4.2-2.8,6.6l-10,61.5l-6.8,1.1l-54.7,8.8c-2.4,0.4-4.7,1.3-6.6,2.8l-19.5,14l-31,22.4l-31-22.4l-19.5-14
		c-2-1.4-4.2-2.4-6.6-2.8l-54.7-8.8l-6.8-1.1l-9.9-61.5c-0.4-2.4-1.3-4.7-2.8-6.6l-36.5-50.6L601,152c1.4-2,2.4-4.2,2.8-6.6l10-61.5
		l61.5-10c2.4-0.4,4.7-1.3,6.6-2.8l50.5-36.4l50.5,36.4c2,1.4,4.2,2.4,6.6,2.8l61.5,10l10,61.5c0.4,2.4,1.3,4.7,2.8,6.6l36.4,50.5
		L863.7,253.1z"/>
	<path class="st1" d="M732.4,93.5c-60.2,0-109.1,48.8-109.1,109.1c0,60.2,48.8,109.1,109.1,109.1c60.2,0,109.1-48.8,109.1-109.1
		C841.3,142.4,792.6,93.6,732.4,93.5 M732.4,280.5c-43,0-77.9-34.9-77.9-77.9c0-43,34.9-77.9,77.9-77.9c43,0,77.9,34.9,77.9,77.9
		C810.2,245.6,775.4,280.4,732.4,280.5"/>
	<path class="st0" d="M218.1,311.6c0-8.6-7-15.6-15.6-15.6H77.9c-8.6,0-15.6,7-15.6,15.6v124.7c0,8.6,7,15.6,15.6,15.6h124.7
		c8.6,0,15.6-7,15.6-15.6V311.6z M187,420.7H93.5v-93.5H187V420.7z"/>
	<rect x="249.3" y="296.1" class="st0" width="109.1" height="31.2"/>
	<rect x="249.3" y="358.4" class="st0" width="264.9" height="31.2"/>
	<rect x="249.3" y="420.7" class="st0" width="140.2" height="31.2"/>
	<rect x="420.7" y="420.7" class="st0" width="93.5" height="31.2"/>
	<path class="st0" d="M218.1,514.2c0-8.6-7-15.6-15.6-15.6H77.9c-8.6,0-15.6,7-15.6,15.6v124.7c0,8.6,7,15.6,15.6,15.6h124.7
		c8.6,0,15.6-7,15.6-15.6V514.2z M187,623.3H93.5v-93.5H187V623.3z"/>
	<rect x="249.3" y="498.6" class="st0" width="109.1" height="31.2"/>
	<rect x="249.3" y="560.9" class="st0" width="358.4" height="31.2"/>
	<rect x="249.3" y="623.3" class="st0" width="140.2" height="31.2"/>
	<rect x="420.7" y="623.3" class="st0" width="187" height="31.2"/>
	<path class="st0" d="M202.6,701.2H77.9c-8.6,0-15.6,7-15.6,15.6v124.7c0,8.6,7,15.6,15.6,15.6h124.7c8.6,0,15.6-7,15.6-15.6V716.8
		C218.1,708.2,211.2,701.2,202.6,701.2 M187,825.9H93.5v-93.5H187V825.9z"/>
	<rect x="249.3" y="701.2" class="st0" width="109.1" height="31.2"/>
	<rect x="249.3" y="763.5" class="st0" width="358.4" height="31.2"/>
	<rect x="249.3" y="825.9" class="st0" width="140.2" height="31.2"/>
	<rect x="420.7" y="825.9" class="st0" width="187" height="31.2"/>
</g>
</svg>
