<?xml version="1.0" encoding="utf-8"?>
<!-- Generator: Adobe Illustrator 22.0.1, SVG Export Plug-In . SVG Version: 6.00 Build 0)  -->
<svg version="1.1" id="Capa_1" xmlns="http://www.w3.org/2000/svg" xmlns:xlink="http://www.w3.org/1999/xlink" x="0px" y="0px"
	 viewBox="0 0 512 512" style="enable-background:new 0 0 512 512;" xml:space="preserve">
<style type="text/css">
	.st0{fill:#0069FF;}
	.st1{fill:#00D67D;}
	.st2{fill:#24DC8F;}
</style>
<g>
	<g>
		<g>
			<path class="st0" d="M488,8H24C10.7,8,0,18.7,0,32v352c0,4.4,3.6,8,8,8h182.2l-12.8,64H160c-4.4,0-8,3.6-8,8v24h-16v16h240v-16
				h-16v-24c0-4.4-3.6-8-8-8h-17.5l-12.8-64H504c4.4,0,8-3.6,8-8V32C512,18.7,501.3,8,488,8z M328,472h16v16H168v-16h16H328z
				 M193.8,456l12.8-64h98.9l12.8,64H193.8z M496,376H16v-72h480V376z M56,288V64h400v224H56z M496,288h-24V56c0-4.4-3.6-8-8-8H48
				c-4.4,0-8,3.6-8,8v232H16V32c0-4.4,3.6-8,8-8h464c4.4,0,8,3.6,8,8V288z"/>
		</g>
	</g>
</g>
<g>
	<g>
		<g>
			<path class="st0" d="M256,312c-13.3,0-24,10.7-24,24s10.7,24,24,24s24-10.7,24-24S269.3,312,256,312z M256,344c-4.4,0-8-3.6-8-8
				s3.6-8,8-8s8,3.6,8,8S260.4,344,256,344z"/>
		</g>
	</g>
</g>
<g>
	<g>
		<g>
			<path class="st1" d="M80,80c-4.4,0-8,3.6-8,8v24h16V96h16V80H80z"/>
		</g>
	</g>
</g>
<g>
	<g>
		<g>
			<path class="st1" d="M200,96h-48c-4.4,0-8,3.6-8,8v48c0,4.4,3.6,8,8,8h48c4.4,0,8-3.6,8-8v-48C208,99.6,204.4,96,200,96z
				 M160,112h20.7L160,132.7V112z M192,144h-20.7l20.7-20.7V144z"/>
		</g>
	</g>
</g>
<g>
	<g>
		<g>
			<rect x="232" y="104" class="st2" width="16" height="16"/>
		</g>
	</g>
</g>
<g>
	<g>
		<g>
			<rect x="264" y="104" class="st2" width="16" height="16"/>
		</g>
	</g>
</g>
<g>
	<g>
		<g>
			<rect x="232" y="136" class="st1" width="128" height="16"/>
		</g>
	</g>
</g>
<g>
	<g>
		<g>
			<path class="st1" d="M200,184h-48c-4.4,0-8,3.6-8,8v48c0,4.4,3.6,8,8,8h48c4.4,0,8-3.6,8-8v-48C208,187.6,204.4,184,200,184z
				 M192,232h-32v-32h32V232z"/>
		</g>
	</g>
</g>
<g>
	<g>
		<g>
			<rect x="232" y="192" class="st2" width="16" height="16"/>
		</g>
	</g>
</g>
<g>
	<g>
		<g>
			<rect x="264" y="192" class="st2" width="16" height="16"/>
		</g>
	</g>
</g>
<g>
	<g>
		<g>
			<rect x="232" y="224" class="st2" width="128" height="16"/>
		</g>
	</g>
</g>
</svg>
