<?xml version="1.0" encoding="utf-8"?>
<!-- Generator: Adobe Illustrator 22.0.1, SVG Export Plug-In . SVG Version: 6.00 Build 0)  -->
<svg version="1.1" id="Layer_1" xmlns="http://www.w3.org/2000/svg" xmlns:xlink="http://www.w3.org/1999/xlink" x="0px" y="0px"
	 viewBox="0 0 480 480" style="enable-background:new 0 0 480 480;" xml:space="preserve">
<style type="text/css">
	.st0{fill:#0069FF;}
	.st1{fill:#00D77E;}
</style>
<path class="st0" d="M245.7,2.3c-3.1-3.1-8.2-3.1-11.3,0L144,92.7V48h8c4.4,0,8-3.6,8-8V8c0-4.4-3.6-8-8-8H40c-4.4,0-8,3.6-8,8v32
	c0,4.4,3.6,8,8,8h8v140.7L2.3,234.3C0.8,235.8,0,237.9,0,240v48c0,3.2,1.9,6.2,4.9,7.4s6.4,0.6,8.7-1.7L48,259.3V472
	c0,4.4,3.6,8,8,8h368c4.4,0,8-3.6,8-8V259.3l34.3,34.3c2.3,2.3,5.7,3,8.7,1.7s4.9-4.2,4.9-7.4v-48c0-2.1-0.8-4.2-2.3-5.7L245.7,2.3z
	 M48,16h96v16H48V16z M64,112h32V96H64V80h32V64H64V48h64v60.7l-64,64V112z M416,464H64V243.3l176-176l176,176V464z M464,268.7
	L245.7,50.3c-3.1-3.1-8.2-3.1-11.3,0L16,268.7v-25.4l224-224l224,224V268.7z"/>
<path class="st1" d="M80,448h320V256H80V448z M96,272h288v160H96V272z"/>
<path class="st1" d="M112,320h16v-16h16v-16h-32V320z"/>
<path class="st1" d="M336,304h16v16h16v-32h-32V304z"/>
<path class="st1" d="M352,400h-16v16h32v-32h-16V400z"/>
<path class="st1" d="M128,384h-16v32h32v-16h-16V384z"/>
<path class="st1" d="M248,296h-16v16h-24v48h48v16h-48v16h24v16h16v-16h24v-48h-48v-16h48v-16h-24V296z"/>
<path class="st0" d="M192,176c0,26.5,21.5,48,48,48s48-21.5,48-48s-21.5-48-48-48C213.5,128,192,149.5,192,176z M272,176
	c0.1,10.4-4.9,20.2-13.5,26.2c-8.5,6-19.5,7.4-29.2,3.8l16.4-16.4l-11.3-11.3l-18.5,18.5c-5.1-5.8-7.9-13.1-7.9-20.8
	c0-17.7,14.3-32,32-32S272,158.3,272,176z"/>
</svg>
