<?xml version="1.0" encoding="utf-8"?>
<!-- Generator: Adobe Illustrator 19.0.1, SVG Export Plug-In . SVG Version: 6.00 Build 0)  -->
<svg version="1.1" id="Layer_1" xmlns="http://www.w3.org/2000/svg" xmlns:xlink="http://www.w3.org/1999/xlink" x="0px" y="0px"
	 viewBox="0 0 480 480" style="enable-background:new 0 0 480 480;" xml:space="preserve">
<style type="text/css">
	.st0{clip-path:url(#SVGID_2_);fill:#00D77E;}
	.st1{clip-path:url(#SVGID_2_);fill:#0069FF;}
</style>
<g>
	<defs>
		<rect id="SVGID_1_" width="480" height="480"/>
	</defs>
	<clipPath id="SVGID_2_">
		<use xlink:href="#SVGID_1_"  style="overflow:visible;"/>
	</clipPath>
	<path class="st0" d="M224,454.8c0,18.6,13.6,25.2,27.9,25.2H456c13.3,0,24-10.7,24-24V168c0-13.3-10.7-24-24-24h-88l-16,0v0H248
		c-13.3,0-24,10.7-24,24v288 M464,456c0,4.4-3.6,8-8,8H248c-4.4,0-8-3.6-8-8V168c0-4.4,3.6-8,8-8h208c4.4,0,8,3.6,8,8V456z"/>
	<path class="st1" d="M328,0H40C17.9,0,0,17.9,0,40v400c0,22.1,17.9,40,40,40h166.3v-16H40c-13.3,0-24-10.7-24-24V40
		c0-13.3,10.7-24,24-24h216v72c0,3.2,1.9,6.2,4.9,7.4c3,1.2,6.4,0.6,8.7-1.7L288,75.3l18.3,18.3c1.5,1.5,3.5,2.3,5.7,2.3
		c1.1,0,2.1-0.2,3.1-0.6c3-1.2,4.9-4.2,4.9-7.4V16h8c13.3,0,24,10.7,24,24v89.6h16V40C368,17.9,350.1,0,328,0 M304,68.7l-10.3-10.3
		c-3.1-3.1-8.2-3.1-11.3,0L272,68.7V16h32V68.7z"/>
	<path class="st0" d="M352,224c4.4,0,8,3.6,8,8h16c0-10.1-6.4-19.1-16-22.5V200h-16v9.5c-11,3.9-17.6,15.1-15.6,26.6
		c2,11.5,12,19.9,23.6,19.9c4.4,0,8,3.6,8,8c0,4.4-3.6,8-8,8c-4.4,0-8-3.6-8-8h-16c0,10.1,6.4,19.1,16,22.5v9.5h16v-9.5
		c11-3.9,17.6-15.1,15.6-26.6c-2-11.5-12-19.9-23.6-19.9c-4.4,0-8-3.6-8-8C344,227.6,347.6,224,352,224"/>
	<path class="st1" d="M120,96c4.4,0,8,3.6,8,8h16c0-10.1-6.4-19.1-16-22.5V72h-16v9.5c-11,3.9-17.6,15.1-15.6,26.6
		c2,11.5,12,19.9,23.6,19.9c4.4,0,8,3.6,8,8s-3.6,8-8,8c-4.4,0-8-3.6-8-8H96c0,10.1,6.4,19.1,16,22.5v9.5h16v-9.5
		c11-3.9,17.6-15.1,15.6-26.6c-2-11.5-12-19.9-23.6-19.9c-4.4,0-8-3.6-8-8C112,99.6,115.6,96,120,96"/>
	<path class="st0" d="M432,176H272c-8.8,0-16,7.2-16,16v112c0,8.8,7.2,16,16,16h160c8.8,0,16-7.2,16-16V192
		C448,183.2,440.8,176,432,176 M272,192h160v112H272V192z"/>
	<path class="st0" d="M440,336H264c-4.4,0-8,3.6-8,8v96c0,4.4,3.6,8,8,8h176c4.4,0,8-3.6,8-8v-96C448,339.6,444.4,336,440,336
		 M368,432h-40v-32h40V432z M368,384h-40v-32h40V384z M312,384h-40v-32h40V384z M272,400h40v32h-40V400z M432,432h-48v-80h48V432z"
		/>
	<rect x="48" y="224" class="st1" width="48" height="16"/>
	<rect x="112" y="224" class="st1" width="80" height="16"/>
	<rect x="48" y="256" class="st1" width="144" height="16"/>
	<rect x="48" y="288" class="st1" width="96" height="16"/>
	<rect x="160" y="288" class="st1" width="32" height="16"/>
	<path class="st1" d="M120,48c-39.8,0-72,32.2-72,72s32.2,72,72,72s72-32.2,72-72C192,80.3,159.7,48,120,48 M120,176
		c-30.9,0-56-25.1-56-56s25.1-56,56-56s56,25.1,56,56C176,150.9,150.9,176,120,176"/>
	<rect x="48" y="336" class="st1" width="144" height="16"/>
	<rect x="48" y="368" class="st1" width="144" height="16"/>
	<rect x="48" y="400" class="st1" width="144" height="16"/>
</g>
</svg>
