<?xml version="1.0" encoding="utf-8"?>
<!-- Generator: Adobe Illustrator 22.0.1, SVG Export Plug-In . SVG Version: 6.00 Build 0)  -->
<svg version="1.1" id="Layer_1" xmlns="http://www.w3.org/2000/svg" xmlns:xlink="http://www.w3.org/1999/xlink" x="0px" y="0px"
	 viewBox="0 0 937 937" style="enable-background:new 0 0 937 937;" xml:space="preserve">
<style type="text/css">
	.st0{fill:#0069FF;}
	.st1{fill:#00D67D;}
</style>
<g id="surface1">
	<path class="st0" d="M62.5,890.8h749.6c34.5,0,62.5-28,62.5-62.5v-46.8c0-8.6-7-15.6-15.6-15.6h-31.2V531.6h-31.2v234.2h-31.2
		V547.2H734v218.6H532.8c-16.6-0.1-31.8,9.4-39.2,24.3c-2.1,4.3-6.5,7-11.3,7h-90c-4.8,0-9.2-2.7-11.3-7
		c-7.4-14.9-22.6-24.3-39.2-24.3H140.6V313h296.7v-31.2H124.9c-8.6,0-15.6,7-15.6,15.6v468.5H78.1V297.3c0-25.9,21-46.8,46.8-46.8
		h312.3v-31.2H124.9c-43.1,0.1-78,35-78.1,78.1v468.5H15.6c-8.6,0-15.6,7-15.6,15.6v46.8C0,862.8,28,890.8,62.5,890.8z M31.2,797.1
		h310.5c4.8,0,9.2,2.7,11.3,7c7.4,14.9,22.6,24.3,39.2,24.3h90c16.6,0.1,31.8-9.4,39.2-24.3c2.1-4.3,6.5-7,11.3-7h310.5v31.2
		c0,17.3-14,31.2-31.2,31.2H62.5c-17.3,0-31.2-14-31.2-31.2V797.1z"/>
	<path class="st0" d="M171.8,344.2H203v31.2h-31.2V344.2z"/>
	<path class="st0" d="M234.3,344.2h31.2v31.2h-31.2V344.2z"/>
	<path class="st0" d="M296.7,344.2H328v31.2h-31.2V344.2z"/>
	<path class="st0" d="M468.5,437.9v-31.2H187.4c-8.6,0-15.6,7-15.6,15.6V516c0,8.6,7,15.6,15.6,15.6h374.8v-31.2H203v-62.5H468.5z"
		/>
	<path class="st0" d="M171.8,703.4h109.3v31.2H171.8V703.4z"/>
	<path class="st0" d="M312.3,703.4h109.3v31.2H312.3V703.4z"/>
	<path class="st0" d="M452.9,703.4h109.3v31.2H452.9V703.4z"/>
	<path class="st0" d="M593.4,703.4h109.3v31.2H593.4V703.4z"/>
	<path class="st0" d="M421.6,578.4c0-8.6-7-15.6-15.6-15.6H328c-8.6,0-15.6,7-15.6,15.6v78.1c0,8.6,7,15.6,15.6,15.6H406
		c8.6,0,15.6-7,15.6-15.6V578.4z M390.4,640.9h-46.9v-46.9h46.9V640.9z"/>
	<path class="st0" d="M281.1,578.4c0-8.6-7-15.6-15.6-15.6h-78.1c-8.6,0-15.6,7-15.6,15.6v78.1c0,8.6,7,15.6,15.6,15.6h78.1
		c8.6,0,15.6-7,15.6-15.6V578.4z M249.9,640.9H203v-46.9h46.9V640.9z"/>
	<path class="st0" d="M687.1,672.1c8.6,0,15.6-7,15.6-15.6v-78.1c0-8.6-7-15.6-15.6-15.6H609c-8.6,0-15.6,7-15.6,15.6v78.1
		c0,8.6,7,15.6,15.6,15.6H687.1z M624.7,594.1h46.8v46.9h-46.8V594.1z"/>
	<path class="st0" d="M562.2,578.4c0-8.6-7-15.6-15.6-15.6h-78.1c-8.6,0-15.6,7-15.6,15.6v78.1c0,8.6,7,15.6,15.6,15.6h78.1
		c8.6,0,15.6-7,15.6-15.6V578.4z M531,640.9h-46.9v-46.9H531V640.9z"/>
	<path class="st1" d="M702.8,47.5c-129.4,0-234.3,104.9-234.3,234.3S573.4,516,702.8,516S937,411.1,937,281.7
		C936.9,152.4,832.1,47.6,702.8,47.5z M702.8,484.7c-112.1,0-203-90.9-203-203s90.9-203,203-203s203,90.9,203,203
		C905.6,393.8,814.8,484.6,702.8,484.7z"/>
	<path class="st1" d="M702.8,172.4c6.9,0.1,13.8,0.8,20.6,2.2l-23.1,14.5l16.6,26.4l52.7-33.2c3.7-2.3,6.2-6,7-10.3
		c0.8-4.3-0.2-8.6-2.7-12.1l-38.4-52.7l-25.3,18.4l12.5,17.1c-40.4-6-81.4,5.9-112.2,32.6c-30.9,26.7-48.5,65.6-48.4,106.4
		c-0.1,28.9,8.8,57.1,25.5,80.7l25.6-17.9c-23.4-33.4-26.3-77-7.5-113.2C624.6,195.1,662,172.4,702.8,172.4z"/>
	<path class="st1" d="M791.6,217.2c23.4,33.4,26.3,77,7.5,113.2c-18.8,36.2-56.2,58.9-97,58.9c-6.9-0.1-13.8-0.8-20.6-2.2l23.1-14.5
		l-16.6-26.4l-52.7,33.2c-3.7,2.3-6.2,6-7,10.3c-0.8,4.2,0.2,8.6,2.7,12.1l38.4,52.7l25.3-18.4l-12.5-17.1
		c55.4,7.9,110.3-17.8,139.6-65.5c29.3-47.7,27.5-108.3-4.6-154.2L791.6,217.2z"/>
</g>
</svg>
