<?xml version="1.0" encoding="utf-8"?>
<!-- Generator: Adobe Illustrator 19.0.1, SVG Export Plug-In . SVG Version: 6.00 Build 0)  -->
<svg version="1.1" id="Layer_1" xmlns="http://www.w3.org/2000/svg" xmlns:xlink="http://www.w3.org/1999/xlink" x="0px" y="0px"
	 viewBox="0 0 128 128" style="enable-background:new 0 0 128 128;" xml:space="preserve">
<style type="text/css">
	.st0{fill:#0069FF;}
	.st1{fill:#00D77E;}
</style>
<path class="st0" d="M84.5,81.4c-0.6,0-1.1-0.2-1.5-0.7c-4.8-5.8-11.8-9.1-19.2-9.1c-7.2,0-14.1,3.1-18.8,8.6
	c-0.7,0.8-2,0.9-2.8,0.2c-0.8-0.7-0.9-2-0.2-2.8c5.5-6.3,13.5-10,21.8-10c8.7,0,16.8,3.8,22.3,10.5c0.7,0.9,0.6,2.1-0.3,2.8
	C85.4,81.3,85,81.4,84.5,81.4z"/>
<path class="st0" d="M98.8,64.7c-0.5,0-1.1-0.2-1.5-0.7c-8.5-9.5-20.8-15-33.5-15c-12.5,0-24.6,5.3-33.1,14.5
	c-0.7,0.8-2,0.9-2.8,0.1c-0.8-0.7-0.9-2-0.1-2.8c9.3-10,22.4-15.8,36-15.8c13.9,0,27.2,6,36.5,16.3c0.7,0.8,0.7,2.1-0.2,2.8
	C99.7,64.5,99.3,64.7,98.8,64.7z"/>
<path class="st0" d="M112,49c-0.5,0-1.1-0.2-1.5-0.6c-12-13-29.1-20.5-46.8-20.5c-17.7,0-34.2,7.1-46.4,20c-0.8,0.8-2,0.8-2.8,0.1
	c-0.8-0.8-0.8-2-0.1-2.8c12.9-13.7,30.4-21.3,49.3-21.3c18.8,0,37,7.9,49.8,21.8c0.8,0.8,0.7,2.1-0.1,2.8C113,48.8,112.5,49,112,49z
	"/>
<path class="st1" d="M64,103.2c-4.6,0-8.4-3.8-8.4-8.4c0-4.6,3.7-8.4,8.4-8.4s8.4,3.7,8.4,8.4C72.3,99.5,68.6,103.2,64,103.2z
	 M64,90.5c-2.4,0-4.4,2-4.4,4.4c0,2.4,2,4.4,4.4,4.4s4.4-2,4.4-4.4C68.3,92.4,66.4,90.5,64,90.5z"/>
</svg>
